<svg width="348" height="432" viewBox="0 0 348 432" fill="none" xmlns="http://www.w3.org/2000/svg">
<path d="M282.115 127.963H260.467V87.048C260.467 64.0822 251.344 42.057 235.104 25.8177C218.865 9.57845 196.84 0.455322 173.874 0.455322C150.908 0.455322 128.883 9.57845 112.644 25.8177C96.4046 42.057 87.2815 64.0822 87.2815 87.048V127.963H65.6333C48.4089 127.963 31.89 134.805 19.7106 146.985C7.53113 159.164 0.688782 175.683 0.688782 192.908V366.093C0.688782 383.317 7.53113 399.836 19.7106 412.016C31.89 424.195 48.4089 431.037 65.6333 431.037H282.115C299.339 431.037 315.858 424.195 328.038 412.016C340.217 399.836 347.059 383.317 347.059 366.093V192.908C347.059 175.683 340.217 159.164 328.038 146.985C315.858 134.805 299.339 127.963 282.115 127.963ZM130.578 87.048C130.287 75.2562 134.679 63.8292 142.793 55.2684C150.908 46.7076 162.084 41.7103 173.874 41.3704C185.665 41.7103 196.84 46.7076 204.955 55.2684C213.069 63.8292 217.462 75.2562 217.17 87.048V127.963H130.578V87.048ZM173.874 344.445C161.029 344.445 148.473 340.636 137.793 333.5C127.113 326.363 118.789 316.22 113.873 304.353C108.958 292.486 107.672 279.428 110.178 266.83C112.683 254.232 118.869 242.66 127.951 233.578C137.034 224.495 148.606 218.309 161.204 215.804C173.802 213.298 186.86 214.584 198.727 219.499C210.594 224.415 220.737 232.739 227.874 243.419C235.01 254.099 238.819 266.655 238.819 279.5C238.819 296.725 231.976 313.243 219.797 325.423C207.617 337.602 191.098 344.445 173.874 344.445Z" fill="white"/>
</svg>
