<svg width="350" height="350" viewBox="0 0 350 350" fill="none" xmlns="http://www.w3.org/2000/svg">
<path fill-rule="evenodd" clip-rule="evenodd" d="M51.2563 298.744C35.0061 282.493 22.1157 263.202 13.3211 241.97C4.52651 220.738 1.71224e-07 197.981 0 175C-1.71224e-07 152.019 4.52651 129.262 13.3211 108.03C22.1157 86.7984 35.0061 67.5066 51.2563 51.2563C67.5066 35.0061 86.7984 22.1157 108.03 13.3211C129.262 4.52651 152.019 -1.71224e-07 175 0C197.981 1.71224e-07 220.738 4.52651 241.97 13.3211C263.202 22.1157 282.493 35.0061 298.744 51.2563C331.563 84.0752 350 128.587 350 175C350 221.413 331.563 265.925 298.744 298.744C265.925 331.563 221.413 350 175 350C128.587 350 84.0752 331.563 51.2563 298.744ZM131.907 108.72C128.797 105.823 124.684 104.245 120.434 104.32C116.184 104.395 112.128 106.117 109.122 109.122C106.117 112.128 104.395 116.184 104.32 120.434C104.245 124.684 105.823 128.797 108.72 131.907L151.813 175L108.72 218.093C107.109 219.595 105.816 221.406 104.919 223.418C104.022 225.431 103.54 227.603 103.501 229.806C103.463 232.009 103.868 234.197 104.693 236.24C105.518 238.282 106.746 240.138 108.304 241.696C109.862 243.254 111.718 244.482 113.76 245.307C115.803 246.132 117.991 246.537 120.194 246.499C122.397 246.46 124.569 245.978 126.582 245.081C128.594 244.184 130.405 242.891 131.907 241.28L175 198.187L218.093 241.28C219.595 242.891 221.406 244.184 223.418 245.081C225.431 245.978 227.603 246.46 229.806 246.499C232.009 246.537 234.197 246.132 236.24 245.307C238.282 244.482 240.138 243.254 241.696 241.696C243.254 240.138 244.482 238.282 245.307 236.24C246.132 234.197 246.537 232.009 246.499 229.806C246.46 227.603 245.978 225.431 245.081 223.418C244.184 221.406 242.891 219.595 241.28 218.093L198.187 175L241.28 131.907C242.891 130.405 244.184 128.594 245.081 126.582C245.978 124.569 246.46 122.397 246.499 120.194C246.537 117.991 246.132 115.803 245.307 113.76C244.482 111.718 243.254 109.862 241.696 108.304C240.138 106.746 238.282 105.518 236.24 104.693C234.197 103.868 232.009 103.463 229.806 103.501C227.603 103.54 225.431 104.022 223.418 104.919C221.406 105.816 219.595 107.109 218.093 108.72L175 151.813L131.907 108.72Z" fill="#EE4B2F"/>
</svg>
